<svg width="162" height="72" viewBox="0 0 162 72" fill="none" xmlns="http://www.w3.org/2000/svg">
<path d="M50.344 53L42.184 41.768V53H33.976V17.48H42.184V37.112L50.296 26.216H60.424L49.288 39.656L60.52 53H50.344ZM66.5759 23.432C65.1359 23.432 63.9519 23.016 63.0239 22.184C62.1279 21.32 61.6799 20.264 61.6799 19.016C61.6799 17.736 62.1279 16.68 63.0239 15.848C63.9519 14.984 65.1359 14.552 66.5759 14.552C67.9839 14.552 69.1359 14.984 70.0319 15.848C70.9599 16.68 71.4239 17.736 71.4239 19.016C71.4239 20.264 70.9599 21.32 70.0319 22.184C69.1359 23.016 67.9839 23.432 66.5759 23.432ZM70.6559 26.216V53H62.4479V26.216H70.6559ZM90.3321 46.04V53H86.1561C83.1801 53 80.8601 52.28 79.1961 50.84C77.5321 49.368 76.7001 46.984 76.7001 43.688V33.032H73.4361V26.216H76.7001V19.688H84.9081V26.216H90.2841V33.032H84.9081V43.784C84.9081 44.584 85.1001 45.16 85.4841 45.512C85.8681 45.864 86.5081 46.04 87.4041 46.04H90.3321ZM118.952 39.176C118.952 39.944 118.904 40.744 118.808 41.576H100.232C100.36 43.24 100.888 44.52 101.816 45.416C102.776 46.28 103.944 46.712 105.32 46.712C107.368 46.712 108.792 45.848 109.592 44.12H118.328C117.88 45.88 117.064 47.464 115.88 48.872C114.728 50.28 113.272 51.384 111.512 52.184C109.752 52.984 107.784 53.384 105.608 53.384C102.984 53.384 100.648 52.824 98.6001 51.704C96.5521 50.584 94.9521 48.984 93.8001 46.904C92.6481 44.824 92.0721 42.392 92.0721 39.608C92.0721 36.824 92.6321 34.392 93.7521 32.312C94.9041 30.232 96.5041 28.632 98.5521 27.512C100.6 26.392 102.952 25.832 105.608 25.832C108.2 25.832 110.504 26.376 112.52 27.464C114.536 28.552 116.104 30.104 117.224 32.12C118.376 34.136 118.952 36.488 118.952 39.176ZM110.552 37.016C110.552 35.608 110.072 34.488 109.112 33.656C108.152 32.824 106.952 32.408 105.512 32.408C104.136 32.408 102.968 32.808 102.008 33.608C101.08 34.408 100.504 35.544 100.28 37.016H110.552ZM132.978 53.384C130.642 53.384 128.562 52.984 126.738 52.184C124.914 51.384 123.474 50.296 122.418 48.92C121.362 47.512 120.77 45.944 120.642 44.216H128.754C128.85 45.144 129.282 45.896 130.05 46.472C130.818 47.048 131.762 47.336 132.882 47.336C133.906 47.336 134.69 47.144 135.234 46.76C135.81 46.344 136.098 45.816 136.098 45.176C136.098 44.408 135.698 43.848 134.898 43.496C134.098 43.112 132.802 42.696 131.01 42.248C129.09 41.8 127.49 41.336 126.21 40.856C124.93 40.344 123.826 39.56 122.898 38.504C121.97 37.416 121.506 35.96 121.506 34.136C121.506 32.6 121.922 31.208 122.754 29.96C123.618 28.68 124.866 27.672 126.498 26.936C128.162 26.2 130.13 25.832 132.402 25.832C135.762 25.832 138.402 26.664 140.322 28.328C142.274 29.992 143.394 32.2 143.682 34.952H136.098C135.97 34.024 135.554 33.288 134.85 32.744C134.178 32.2 133.282 31.928 132.162 31.928C131.202 31.928 130.466 32.12 129.954 32.504C129.442 32.856 129.186 33.352 129.186 33.992C129.186 34.76 129.586 35.336 130.386 35.72C131.218 36.104 132.498 36.488 134.226 36.872C136.21 37.384 137.826 37.896 139.074 38.408C140.322 38.888 141.41 39.688 142.338 40.808C143.298 41.896 143.794 43.368 143.826 45.224C143.826 46.792 143.378 48.2 142.482 49.448C141.618 50.664 140.354 51.624 138.69 52.328C137.058 53.032 135.154 53.384 132.978 53.384Z" fill="black"/>
<path d="M144.222 20.972H141.558L143.502 16.436H145.248L144.222 20.972ZM147.253 26.156C148.405 25.196 149.323 24.398 150.007 23.762C150.691 23.114 151.261 22.442 151.717 21.746C152.173 21.05 152.401 20.366 152.401 19.694C152.401 19.082 152.257 18.602 151.969 18.254C151.681 17.906 151.237 17.732 150.637 17.732C150.037 17.732 149.575 17.936 149.251 18.344C148.927 18.74 148.759 19.286 148.747 19.982H146.299C146.347 18.542 146.773 17.45 147.577 16.706C148.393 15.962 149.425 15.59 150.673 15.59C152.041 15.59 153.091 15.956 153.823 16.688C154.555 17.408 154.921 18.362 154.921 19.55C154.921 20.486 154.669 21.38 154.165 22.232C153.661 23.084 153.085 23.828 152.437 24.464C151.789 25.088 150.943 25.844 149.899 26.732H155.209V28.82H146.317V26.948L147.253 26.156ZM156.041 18.2V15.878H160.379V29H157.787V18.2H156.041Z" fill="#0075FF"/>
<path d="M21.2312 14.1389L24.2687 37.301L0.347168 58.3862L2.70884 25.5301L21.2312 14.1389Z" fill="url(#paint0_linear)"/>
<defs>
<linearGradient id="paint0_linear" x1="22.0203" y1="14.5379" x2="-0.0444396" y2="58.1884" gradientUnits="userSpaceOnUse">
<stop stop-color="#4630EB"/>
<stop offset="1" stop-color="#00A3FF"/>
</linearGradient>
</defs>
</svg>
